<svg xmlns="http://www.w3.org/2000/svg" xmlns:xlink="http://www.w3.org/1999/xlink" width="500" zoomAndPan="magnify" viewBox="0 0 375 374.999991" height="500" preserveAspectRatio="xMidYMid meet" version="1.0"><defs><g/><clipPath id="e5b46d0322"><path d="M 187.007812 166.503906 L 205.226562 166.503906 L 205.226562 187.480469 L 187.007812 187.480469 Z M 187.007812 166.503906 " clip-rule="nonzero"/></clipPath><clipPath id="9e0ed04ad2"><path d="M 205.867188 166.503906 L 224.089844 166.503906 L 224.089844 187.480469 L 205.867188 187.480469 Z M 205.867188 166.503906 " clip-rule="nonzero"/></clipPath><clipPath id="49f5b733f6"><path d="M 168 133.765625 L 187 133.765625 L 187 155 L 168 155 Z M 168 133.765625 " clip-rule="nonzero"/></clipPath><clipPath id="fd4150afdc"><path d="M 227.425781 167.402344 L 231.347656 167.402344 L 231.347656 172.148438 L 227.425781 172.148438 Z M 227.425781 167.402344 " clip-rule="nonzero"/></clipPath><clipPath id="df93d866fe"><path d="M 229.351562 155.082031 L 231.347656 155.082031 L 231.347656 157.519531 L 229.351562 157.519531 Z M 229.351562 155.082031 " clip-rule="nonzero"/></clipPath><clipPath id="bd2ec3c38f"><path d="M 143.636719 137 L 148 137 L 148 143 L 143.636719 143 Z M 143.636719 137 " clip-rule="nonzero"/></clipPath></defs><rect x="-37.5" width="450" fill="#ffffff" y="-37.499999" height="449.999989" fill-opacity="1"/><rect x="-37.5" width="450" fill="#ffffff" y="-37.499999" height="449.999989" fill-opacity="1"/><g clip-path="url(#e5b46d0322)"><path fill="#ffde59" d="M 187.066406 171.792969 L 196.125 166.5625 L 205.179688 171.792969 L 205.179688 182.25 L 196.125 187.480469 L 187.066406 182.25 L 187.066406 171.792969 " fill-opacity="1" fill-rule="nonzero"/></g><g clip-path="url(#9e0ed04ad2)"><path fill="#ffbd59" d="M 205.957031 171.792969 L 215.015625 166.5625 L 224.070312 171.792969 L 224.070312 182.25 L 215.015625 187.480469 L 205.957031 182.25 L 205.957031 171.792969 " fill-opacity="1" fill-rule="nonzero"/></g><path fill="#ff914d" d="M 196.511719 155.402344 L 205.570312 150.171875 L 214.625 155.402344 L 214.625 165.859375 L 205.570312 171.089844 L 196.511719 165.859375 L 196.511719 155.402344 " fill-opacity="1" fill-rule="nonzero"/><path fill="#ffde59" d="M 158.734375 155.402344 L 167.789062 150.171875 L 176.847656 155.402344 L 176.847656 165.859375 L 167.789062 171.089844 L 158.734375 165.859375 L 158.734375 155.402344 " fill-opacity="1" fill-rule="nonzero"/><path fill="#ffbd59" d="M 177.625 155.402344 L 186.679688 150.171875 L 195.738281 155.402344 L 195.738281 165.859375 L 186.679688 171.089844 L 177.625 165.859375 L 177.625 155.402344 " fill-opacity="1" fill-rule="nonzero"/><g clip-path="url(#49f5b733f6)"><path fill="#ff914d" d="M 168.179688 139.011719 L 177.234375 133.78125 L 186.292969 139.011719 L 186.292969 149.46875 L 177.234375 154.699219 L 168.179688 149.46875 L 168.179688 139.011719 " fill-opacity="1" fill-rule="nonzero"/></g><path fill="#ffde59" d="M 219.359375 160.597656 L 222.804688 158.609375 L 226.246094 160.597656 L 226.246094 164.574219 L 222.804688 166.5625 L 219.359375 164.574219 L 219.359375 160.597656 " fill-opacity="1" fill-rule="nonzero"/><path fill="#ffde59" d="M 170.734375 172.886719 L 174.179688 170.898438 L 177.625 172.886719 L 177.625 176.863281 L 174.179688 178.851562 L 170.734375 176.863281 L 170.734375 172.886719 " fill-opacity="1" fill-rule="nonzero"/><path fill="#ffde59" d="M 192.863281 145.289062 L 195.3125 143.875 L 197.765625 145.289062 L 197.765625 148.117188 L 195.3125 149.53125 L 192.863281 148.117188 L 192.863281 145.289062 " fill-opacity="1" fill-rule="nonzero"/><g clip-path="url(#fd4150afdc)"><path fill="#ffbd59" d="M 227.429688 168.640625 L 229.390625 167.507812 L 231.347656 168.640625 L 231.347656 170.902344 L 229.390625 172.035156 L 227.429688 170.902344 L 227.429688 168.640625 " fill-opacity="1" fill-rule="nonzero"/></g><path fill="#ffbd59" d="M 153.53125 153.851562 L 155 153.003906 L 156.46875 153.851562 L 156.46875 155.546875 L 155 156.398438 L 153.53125 155.546875 L 153.53125 153.851562 " fill-opacity="1" fill-rule="nonzero"/><path fill="#ffbd59" d="M 152.523438 169.660156 L 155 168.230469 L 157.476562 169.660156 L 157.476562 172.519531 L 155 173.949219 L 152.523438 172.519531 L 152.523438 169.660156 " fill-opacity="1" fill-rule="nonzero"/><path fill="#ffbd59" d="M 147.199219 161.546875 L 149 160.503906 L 150.800781 161.546875 L 150.800781 163.625 L 149 164.664062 L 147.199219 163.625 L 147.199219 161.546875 " fill-opacity="1" fill-rule="nonzero"/><path fill="#ffbd59" d="M 221.589844 146.003906 L 222.804688 145.300781 L 224.015625 146.003906 L 224.015625 147.40625 L 222.804688 148.105469 L 221.589844 147.40625 L 221.589844 146.003906 " fill-opacity="1" fill-rule="nonzero"/><g clip-path="url(#df93d866fe)"><path fill="#ffbd59" d="M 229.390625 155.722656 L 230.371094 155.15625 L 231.347656 155.722656 L 231.347656 156.855469 L 230.371094 157.421875 L 229.390625 156.855469 L 229.390625 155.722656 " fill-opacity="1" fill-rule="nonzero"/></g><path fill="#ffbd59" d="M 162.761719 145.785156 L 164.355469 144.863281 L 165.945312 145.785156 L 165.945312 147.621094 L 164.355469 148.542969 L 162.761719 147.621094 L 162.761719 145.785156 " fill-opacity="1" fill-rule="nonzero"/><path fill="#ffde59" d="M 152.503906 164.890625 L 144.160156 169.707031 L 144.160156 179.34375 L 152.503906 184.164062 L 160.851562 179.34375 L 160.851562 169.707031 Z M 152.503906 165.554688 L 160.273438 170.042969 L 160.273438 179.011719 L 152.503906 183.496094 L 144.738281 179.011719 L 144.738281 170.042969 L 152.503906 165.554688 " fill-opacity="1" fill-rule="nonzero"/><path fill="#ffde59" d="M 196.125 139.800781 L 191.359375 142.550781 L 191.359375 148.050781 L 196.125 150.800781 L 200.886719 148.050781 L 200.886719 142.550781 Z M 196.125 140.179688 L 200.558594 142.742188 L 200.558594 147.863281 L 196.125 150.421875 L 191.691406 147.863281 L 191.691406 142.742188 L 196.125 140.179688 " fill-opacity="1" fill-rule="nonzero"/><path fill="#ffde59" d="M 152.523438 146.597656 L 146.976562 149.800781 L 146.976562 156.203125 L 152.523438 159.40625 L 158.070312 156.203125 L 158.070312 149.800781 Z M 152.523438 147.039062 L 157.6875 150.019531 L 157.6875 155.984375 L 152.523438 158.964844 L 147.363281 155.984375 L 147.363281 150.019531 L 152.523438 147.039062 " fill-opacity="1" fill-rule="nonzero"/><g clip-path="url(#bd2ec3c38f)"><path fill="#ffde59" d="M 145.554688 137.964844 L 143.636719 139.070312 L 143.636719 141.289062 L 145.554688 142.398438 L 147.476562 141.289062 L 147.476562 139.070312 Z M 145.554688 138.117188 L 147.34375 139.148438 L 147.34375 141.210938 L 145.554688 142.246094 L 143.769531 141.210938 L 143.769531 139.148438 L 145.554688 138.117188 " fill-opacity="1" fill-rule="nonzero"/></g><path fill="#ffde59" d="M 214.625 151.832031 L 210.894531 153.988281 L 210.894531 158.300781 L 214.625 160.453125 L 218.359375 158.300781 L 218.359375 153.988281 Z M 214.625 152.128906 L 218.101562 154.136719 L 218.101562 158.148438 L 214.625 160.15625 L 211.152344 158.148438 L 211.152344 154.136719 L 214.625 152.128906 " fill-opacity="1" fill-rule="nonzero"/><g fill="#ffbd59" fill-opacity="1"><g transform="translate(110.50685, 244.89038)"><g><path d="M 2.953125 -0.953125 L 2.953125 -44.484375 L 2.640625 -52 C 4.453125 -52.269531 6.238281 -52.40625 8 -52.40625 C 8.851562 -52.40625 9.28125 -51.953125 9.28125 -51.046875 L 9.28125 -7.515625 L 9.59375 0 C 7.78125 0.269531 5.992188 0.40625 4.234375 0.40625 C 3.378906 0.40625 2.953125 -0.046875 2.953125 -0.953125 Z M 2.953125 -0.953125 "/></g></g></g><g fill="#ffbd59" fill-opacity="1"><g transform="translate(124.665617, 244.89038)"><g><path d="M 9.515625 -6.5625 C 9.515625 -3.945312 9.703125 -1.757812 10.078125 0 C 8.484375 0.207031 6.75 0.3125 4.875 0.3125 C 3.96875 0.3125 3.515625 -0.0820312 3.515625 -0.875 L 3.515625 -32.5625 C 3.515625 -33.675781 3.3125 -34.472656 2.90625 -34.953125 C 2.507812 -35.441406 1.753906 -35.6875 0.640625 -35.6875 C 0.585938 -37.070312 0.945312 -38.132812 1.71875 -38.875 C 2.488281 -39.625 3.726562 -40 5.4375 -40 C 7.144531 -40 8.375 -39.171875 9.125 -37.515625 C 10.882812 -39.171875 12.789062 -40 14.84375 -40 C 16.894531 -40 18.546875 -39.332031 19.796875 -38 C 21.054688 -36.664062 21.6875 -34.769531 21.6875 -32.3125 L 21.6875 -6.640625 C 21.6875 -5.515625 21.882812 -4.710938 22.28125 -4.234375 C 22.675781 -3.753906 23.4375 -3.515625 24.5625 -3.515625 C 24.613281 -2.128906 24.25 -1.0625 23.46875 -0.3125 C 22.695312 0.425781 21.566406 0.796875 20.078125 0.796875 C 18.585938 0.796875 17.484375 0.34375 16.765625 -0.5625 C 16.046875 -1.46875 15.6875 -2.960938 15.6875 -5.046875 L 15.6875 -31.84375 C 15.6875 -33.601562 14.773438 -34.484375 12.953125 -34.484375 C 11.460938 -34.484375 10.316406 -33.65625 9.515625 -32 Z M 9.515625 -6.5625 "/></g></g></g><g fill="#ffbd59" fill-opacity="1"><g transform="translate(151.54314, 244.89038)"><g><path d="M 7.84375 -7.921875 C 7.84375 -5.515625 8.921875 -4.3125 11.078125 -4.3125 C 13.234375 -4.3125 14.3125 -5.617188 14.3125 -8.234375 L 14.3125 -11.515625 C 14.3125 -13.492188 13.617188 -14.910156 12.234375 -15.765625 L 5.203125 -20 C 3.117188 -21.28125 2.078125 -23.441406 2.078125 -26.484375 L 2.078125 -32.078125 C 2.078125 -34.421875 2.835938 -36.328125 4.359375 -37.796875 C 5.878906 -39.265625 8.117188 -40 11.078125 -40 C 14.035156 -40 16.285156 -39.382812 17.828125 -38.15625 C 19.378906 -36.925781 20.15625 -35.25 20.15625 -33.125 L 20.15625 -28.078125 C 20.15625 -27.171875 19.515625 -26.554688 18.234375 -26.234375 C 17.597656 -26.023438 16.921875 -25.921875 16.203125 -25.921875 C 15.484375 -25.921875 14.773438 -26 14.078125 -26.15625 C 14.234375 -27.332031 14.3125 -28.585938 14.3125 -29.921875 L 14.3125 -31.125 C 14.3125 -33.625 13.300781 -34.875 11.28125 -34.875 C 9.144531 -34.875 8.078125 -33.753906 8.078125 -31.515625 L 8.078125 -27.84375 C 8.078125 -25.976562 8.664062 -24.722656 9.84375 -24.078125 L 16.875 -20 C 19.164062 -18.71875 20.3125 -16.53125 20.3125 -13.4375 L 20.3125 -7.4375 C 20.3125 -4.875 19.550781 -2.859375 18.03125 -1.390625 C 16.519531 0.0664062 14.296875 0.796875 11.359375 0.796875 C 8.421875 0.796875 6.125 0.210938 4.46875 -0.953125 C 2.820312 -2.128906 2 -3.8125 2 -6 L 2 -11.28125 C 2 -12.1875 2.640625 -12.800781 3.921875 -13.125 C 4.554688 -13.332031 5.234375 -13.4375 5.953125 -13.4375 C 6.679688 -13.4375 7.390625 -13.359375 8.078125 -13.203125 C 7.921875 -12.023438 7.84375 -10.769531 7.84375 -9.4375 Z M 7.84375 -7.921875 "/></g></g></g><g fill="#ffbd59" fill-opacity="1"><g transform="translate(175.780924, 244.89038)"><g><path d="M 6.484375 -46.484375 C 4.191406 -46.484375 3.046875 -48 3.046875 -51.03125 C 3.046875 -54.070312 4.191406 -55.59375 6.484375 -55.59375 C 8.773438 -55.59375 9.921875 -54.070312 9.921875 -51.03125 C 9.921875 -48 8.773438 -46.484375 6.484375 -46.484375 Z M 1.515625 -39.203125 L 9.515625 -39.203125 L 9.515625 -6.640625 C 9.515625 -5.515625 9.710938 -4.710938 10.109375 -4.234375 C 10.515625 -3.753906 11.28125 -3.515625 12.40625 -3.515625 C 12.457031 -2.128906 12.09375 -1.0625 11.3125 -0.3125 C 10.539062 0.425781 9.410156 0.796875 7.921875 0.796875 C 6.429688 0.796875 5.320312 0.34375 4.59375 -0.5625 C 3.875 -1.46875 3.515625 -2.960938 3.515625 -5.046875 L 3.515625 -34.40625 L 1.046875 -34 C 0.671875 -35.382812 0.484375 -36.597656 0.484375 -37.640625 C 0.484375 -38.679688 0.828125 -39.203125 1.515625 -39.203125 Z M 1.515625 -39.203125 "/></g></g></g><g fill="#ffbd59" fill-opacity="1"><g transform="translate(190.73961, 244.89038)"><g><path d="M 12 -5.359375 L 13.59375 -5.359375 C 16.257812 -5.359375 18.285156 -4.582031 19.671875 -3.03125 C 21.066406 -1.488281 21.765625 0.691406 21.765625 3.515625 C 21.765625 9.273438 19.148438 12.15625 13.921875 12.15625 L 9.921875 12.15625 C 7.253906 12.15625 5.226562 11.367188 3.84375 9.796875 C 2.457031 8.222656 1.765625 6.023438 1.765625 3.203125 C 1.765625 -0.691406 3.175781 -3.28125 6 -4.5625 L 6 -10.15625 C 3.488281 -11.488281 2.234375 -13.863281 2.234375 -17.28125 L 2.234375 -30.71875 C 2.234375 -33.382812 3.0625 -35.460938 4.71875 -36.953125 C 6.375 -38.453125 8.613281 -39.203125 11.4375 -39.203125 L 15.515625 -39.203125 L 20.40625 -39.515625 L 20.40625 -17.59375 C 20.40625 -15.039062 19.644531 -13.03125 18.125 -11.5625 C 16.601562 -10.09375 14.5625 -9.28125 12 -9.125 Z M 8.234375 -31.046875 L 8.234375 -17.28125 C 8.234375 -16.375 8.523438 -15.613281 9.109375 -15 C 9.703125 -14.382812 10.4375 -14.078125 11.3125 -14.078125 C 12.195312 -14.078125 12.929688 -14.382812 13.515625 -15 C 14.109375 -15.613281 14.40625 -16.375 14.40625 -17.28125 L 14.40625 -34.078125 L 11.28125 -34.078125 C 10.375 -34.078125 9.640625 -33.796875 9.078125 -33.234375 C 8.515625 -32.679688 8.234375 -31.953125 8.234375 -31.046875 Z M 13.84375 -0.3125 L 9.6875 -0.3125 C 8.238281 -0.3125 7.515625 0.925781 7.515625 3.40625 C 7.515625 5.882812 8.238281 7.125 9.6875 7.125 L 13.84375 7.125 C 15.28125 7.125 16 5.882812 16 3.40625 C 16 0.925781 15.28125 -0.3125 13.84375 -0.3125 Z M 13.84375 -0.3125 "/></g></g></g><g fill="#ffbd59" fill-opacity="1"><g transform="translate(215.617336, 244.89038)"><g><path d="M 2.875 -49.59375 C 2.875 -51.195312 2.632812 -52.828125 2.15625 -54.484375 C 3.757812 -55.335938 5.46875 -55.765625 7.28125 -55.765625 C 8.34375 -55.765625 8.875 -55.363281 8.875 -54.5625 L 8.875 -37.921875 C 10.53125 -39.304688 12.34375 -40 14.3125 -40 C 16.289062 -40 17.90625 -39.332031 19.15625 -38 C 20.414062 -36.664062 21.046875 -34.769531 21.046875 -32.3125 L 21.046875 -6.640625 C 21.046875 -5.515625 21.242188 -4.710938 21.640625 -4.234375 C 22.035156 -3.753906 22.796875 -3.515625 23.921875 -3.515625 C 23.972656 -2.128906 23.613281 -1.0625 22.84375 -0.3125 C 22.070312 0.425781 20.9375 0.796875 19.4375 0.796875 C 17.945312 0.796875 16.84375 0.34375 16.125 -0.5625 C 15.40625 -1.46875 15.046875 -2.960938 15.046875 -5.046875 L 15.046875 -31.84375 C 15.046875 -33.601562 14.132812 -34.484375 12.3125 -34.484375 C 10.820312 -34.484375 9.675781 -33.65625 8.875 -32 L 8.875 -6.5625 C 8.875 -4 9.0625 -1.863281 9.4375 -0.15625 C 7.84375 0.15625 6.109375 0.3125 4.234375 0.3125 C 3.328125 0.3125 2.875 -0.0820312 2.875 -0.875 Z M 2.875 -49.59375 "/></g></g></g><g fill="#ffbd59" fill-opacity="1"><g transform="translate(241.854928, 244.89038)"><g><path d="M 21.515625 -6.15625 C 21.515625 -3.914062 20.660156 -2.195312 18.953125 -1 C 17.253906 0.195312 15.082031 0.796875 12.4375 0.796875 C 9.800781 0.796875 7.695312 0.117188 6.125 -1.234375 C 4.550781 -2.597656 3.765625 -4.425781 3.765625 -6.71875 L 3.765625 -34.40625 L 1.28125 -34 C 0.90625 -35.382812 0.71875 -36.597656 0.71875 -37.640625 C 0.71875 -38.679688 1.066406 -39.203125 1.765625 -39.203125 L 3.921875 -39.203125 L 5.046875 -46.71875 C 5.253906 -47.894531 6.238281 -48.484375 8 -48.484375 C 8.53125 -48.484375 9.117188 -48.425781 9.765625 -48.3125 L 9.765625 -39.203125 L 16.71875 -39.203125 L 20.875 -39.59375 C 21.144531 -38.207031 21.28125 -36.992188 21.28125 -35.953125 C 21.28125 -34.921875 20.929688 -34.40625 20.234375 -34.40625 L 9.765625 -34.40625 L 9.765625 -7.6875 C 9.765625 -6.5625 10.039062 -5.691406 10.59375 -5.078125 C 11.15625 -4.460938 11.863281 -4.15625 12.71875 -4.15625 C 14.695312 -4.15625 15.6875 -5.460938 15.6875 -8.078125 L 15.6875 -13.921875 L 15.4375 -17.6875 C 16.132812 -17.84375 16.84375 -17.921875 17.5625 -17.921875 C 18.28125 -17.921875 18.957031 -17.8125 19.59375 -17.59375 C 20.875 -17.28125 21.515625 -16.671875 21.515625 -15.765625 Z M 21.515625 -6.15625 "/></g></g></g><g fill="#ffbd59" fill-opacity="1"><g transform="translate(172.075496, 270.332032)"><g><path d="M 0.953125 -0.265625 L 0.953125 -12.40625 C 0.953125 -12.71875 0.890625 -12.9375 0.765625 -13.0625 C 0.640625 -13.1875 0.421875 -13.25 0.109375 -13.25 C 0.109375 -14.082031 0.578125 -14.5 1.515625 -14.5 C 2.296875 -14.5 2.6875 -13.992188 2.6875 -12.984375 L 2.6875 -7.234375 L 4.734375 -7.234375 L 4.734375 -12.234375 L 4.640625 -14.296875 C 5.140625 -14.367188 5.628906 -14.40625 6.109375 -14.40625 C 6.347656 -14.40625 6.46875 -14.28125 6.46875 -14.03125 L 6.46875 -1.875 C 6.46875 -1.5625 6.53125 -1.34375 6.65625 -1.21875 C 6.78125 -1.09375 6.992188 -1.03125 7.296875 -1.03125 C 7.296875 -0.195312 6.828125 0.21875 5.890625 0.21875 C 5.117188 0.21875 4.734375 -0.285156 4.734375 -1.296875 L 4.734375 -5.78125 L 2.6875 -5.78125 L 2.6875 -2.0625 L 2.765625 0 C 2.273438 0.0703125 1.785156 0.109375 1.296875 0.109375 C 1.066406 0.109375 0.953125 -0.015625 0.953125 -0.265625 Z M 0.953125 -0.265625 "/></g></g></g><g fill="#ffbd59" fill-opacity="1"><g transform="translate(182.304174, 270.332032)"><g><path d="M 1.78125 -12.78125 C 1.15625 -12.78125 0.84375 -13.195312 0.84375 -14.03125 C 0.84375 -14.875 1.15625 -15.296875 1.78125 -15.296875 C 2.414062 -15.296875 2.734375 -14.875 2.734375 -14.03125 C 2.734375 -13.195312 2.414062 -12.78125 1.78125 -12.78125 Z M 0.421875 -10.78125 L 2.625 -10.78125 L 2.625 -1.828125 C 2.625 -1.515625 2.675781 -1.289062 2.78125 -1.15625 C 2.894531 -1.03125 3.101562 -0.96875 3.40625 -0.96875 C 3.425781 -0.582031 3.328125 -0.285156 3.109375 -0.078125 C 2.898438 0.117188 2.585938 0.21875 2.171875 0.21875 C 1.765625 0.21875 1.460938 0.09375 1.265625 -0.15625 C 1.066406 -0.40625 0.96875 -0.816406 0.96875 -1.390625 L 0.96875 -9.453125 L 0.28125 -9.34375 C 0.175781 -9.726562 0.125 -10.0625 0.125 -10.34375 C 0.125 -10.632812 0.222656 -10.78125 0.421875 -10.78125 Z M 0.421875 -10.78125 "/></g></g></g><g fill="#ffbd59" fill-opacity="1"><g transform="translate(188.705536, 270.332032)"><g><path d="M 1.203125 -11 C 1.617188 -11 1.914062 -10.878906 2.09375 -10.640625 C 2.28125 -10.410156 2.375 -9.890625 2.375 -9.078125 C 2.375 -8.265625 2.472656 -7.039062 2.671875 -5.40625 C 2.878906 -3.78125 3.109375 -2.445312 3.359375 -1.40625 C 4.035156 -4.414062 4.375 -7.078125 4.375 -9.390625 L 4.328125 -10.828125 C 4.609375 -10.878906 4.875 -10.90625 5.125 -10.90625 C 5.382812 -10.90625 5.617188 -10.875 5.828125 -10.8125 C 6.046875 -10.757812 6.15625 -10.617188 6.15625 -10.390625 C 6.15625 -9.140625 6.007812 -7.523438 5.71875 -5.546875 C 5.425781 -3.566406 5.097656 -1.984375 4.734375 -0.796875 C 4.566406 -0.265625 4.300781 0 3.9375 0 L 2.640625 0 C 2.273438 0 2.007812 -0.265625 1.84375 -0.796875 C 1.519531 -1.910156 1.25 -3.273438 1.03125 -4.890625 C 0.820312 -6.515625 0.71875 -7.867188 0.71875 -8.953125 C 0.71875 -9.265625 0.660156 -9.484375 0.546875 -9.609375 C 0.441406 -9.742188 0.238281 -9.8125 -0.0625 -9.8125 C -0.0820312 -10.175781 0.0195312 -10.460938 0.25 -10.671875 C 0.476562 -10.890625 0.796875 -11 1.203125 -11 Z M 1.203125 -11 "/></g></g></g><g fill="#ffbd59" fill-opacity="1"><g transform="translate(198.142352, 270.332032)"><g><path d="M 4.09375 -8.640625 C 4.09375 -8.941406 4.003906 -9.175781 3.828125 -9.34375 C 3.648438 -9.507812 3.429688 -9.59375 3.171875 -9.59375 C 2.628906 -9.59375 2.359375 -9.363281 2.359375 -8.90625 L 2.359375 -5.765625 L 3.40625 -6.5625 C 3.863281 -6.894531 4.09375 -7.585938 4.09375 -8.640625 Z M 0.703125 -1.953125 L 0.703125 -8.84375 C 0.703125 -10.28125 1.546875 -11 3.234375 -11 C 4.929688 -11 5.78125 -10.191406 5.78125 -8.578125 C 5.78125 -7.929688 5.660156 -7.335938 5.421875 -6.796875 C 5.191406 -6.253906 4.875 -5.84375 4.46875 -5.5625 L 2.359375 -4.109375 L 2.359375 -2.109375 C 2.359375 -1.492188 2.644531 -1.1875 3.21875 -1.1875 C 3.800781 -1.1875 4.09375 -1.53125 4.09375 -2.21875 L 4.09375 -2.734375 L 4.03125 -3.765625 C 4.21875 -3.804688 4.410156 -3.828125 4.609375 -3.828125 C 4.804688 -3.828125 4.992188 -3.796875 5.171875 -3.734375 C 5.523438 -3.648438 5.703125 -3.484375 5.703125 -3.234375 L 5.703125 -1.65625 C 5.703125 -1.0625 5.46875 -0.597656 5 -0.265625 C 4.539062 0.0546875 3.929688 0.21875 3.171875 0.21875 C 1.523438 0.21875 0.703125 -0.503906 0.703125 -1.953125 Z M 0.703125 -1.953125 "/></g></g></g></svg>